<?xml version="1.0" encoding="utf-8" ?>
<svg xmlns="http://www.w3.org/2000/svg" xmlns:xlink="http://www.w3.org/1999/xlink" width="2750" height="2750">
	<path fill="#696868" transform="scale(2.68555 2.68555)" d="M442.414 1001.5C366.272 990.561 294.431 962.63 230.895 919.341C123.223 845.982 50.5257 731.718 26.3704 604C2.48825 477.727 28.3305 342.996 101.083 236.589C110.33 223.065 119.893 209.473 130.328 196.838C203.997 107.636 307.306 46.404 421.052 25.177C442.539 21.1672 464.356 18.0534 486.189 16.8738C595.352 10.9756 703.644 44.2646 793.482 105.675C876.002 162.083 941.364 246.685 975.459 340.644C987.028 372.527 994.558 404.813 1000.81 438.07L992.541 430.716L934.99 373.54L868.02 307.397L832.001 271.35L817.571 256.835C814.237 253.486 810.723 249.38 806.47 247.203C789.307 230.358 772.003 212.964 752.989 198.209C683.885 144.585 596.506 114.204 508.925 114.991L490.209 116.006C437.294 119.244 385.836 133.271 338.257 156.605C323.048 164.064 307.925 172.264 293.825 181.693C268.32 198.746 245.959 218.225 224.488 240.076C153.553 312.267 114.031 415.136 114.997 515.998C115.984 619.031 159.799 722.099 233.42 794.138C236.677 797.325 240.27 800.427 243.145 803.965C244.567 806.937 247.324 809.093 249.632 811.373L260.713 822.335L322.182 881.842L377.585 936.368L407.463 966.649L432.25 990.893C435.505 994.088 440.062 997.612 442.414 1001.5Z"/>
	<path fill="#151515" transform="scale(2.68555 2.68555)" d="M243.145 803.965C240.27 800.427 236.677 797.325 233.42 794.138C159.799 722.099 115.984 619.031 114.997 515.998C114.031 415.136 153.553 312.267 224.488 240.076C245.959 218.225 268.32 198.746 293.825 181.693C307.925 172.264 323.048 164.064 338.257 156.605C385.836 133.271 437.294 119.244 490.209 116.006L508.925 114.991C596.506 114.204 683.885 144.585 752.989 198.209C772.003 212.964 789.307 230.358 806.47 247.203C810.723 249.38 814.237 253.486 817.571 256.835L832.001 271.35L868.02 307.397L934.99 373.54L992.541 430.716L1000.81 438.07C1006.03 466.562 1007.27 494.878 1006.57 523.79C1004.3 617.671 975.488 710.912 922.011 788.416C900.077 820.204 874.837 849.805 846.347 875.917C776.995 939.477 690.595 982.002 598.156 998.939C569.479 1004.19 540.916 1005.93 511.807 1005.9C488.652 1005.88 465.354 1004.81 442.414 1001.5C440.062 997.612 435.505 994.088 432.25 990.893L407.463 966.649L377.585 936.368L322.182 881.842L260.713 822.335L249.632 811.373C247.324 809.093 244.567 806.937 243.145 803.965Z"/>
	<defs>
		<linearGradient id="gradient_0" gradientUnits="userSpaceOnUse" x1="225.46596" y1="252.43369" x2="723.51764" y2="703.61023">
			<stop offset="0" stop-color="#3D3A3D"/>
			<stop offset="1" stop-color="#65646A"/>
		</linearGradient>
	</defs>
	<path fill="url(#gradient_0)" transform="scale(2.68555 2.68555)" d="M517.759 901.578C508.641 901.593 499.28 901.879 490.186 901.235C397.253 894.65 306.897 854.05 240.669 788.369C203.473 751.48 173.109 706.373 153.25 657.896C147.184 643.088 142.469 627.843 138.225 612.428C134.73 599.733 131.55 586.984 129.389 573.984C125.791 552.329 124.452 529.636 124.363 507.695C123.95 406.029 168.554 307.832 239.963 236.466C303.945 172.523 393.841 132.333 483.725 124.891C495.033 123.954 506.307 123.942 517.646 123.978C618.795 124.303 716.407 168.112 787.286 239.632C801.773 254.25 815.16 271.174 826.912 288.033C872.763 353.804 899.196 432.708 898.957 513.135L893.881 508.666L865.355 477.656L864.003 478.466C864.004 476.623 863.717 476.238 862.843 474.679L840.382 451.879C836.404 447.827 832.488 443.257 828.085 439.71L827.783 441.5L827.229 441.772L826.99 439.75C826.57 437.967 825.364 436.199 824.126 434.88L802.178 413.041L756.114 366.424L719.666 329.708C715.981 326.106 712.074 321.24 707.634 318.647L678.944 293.81L679.698 293.767L680.5 294.25C681.465 293.755 682.025 293.492 683.125 293.625L684 293.755C684.35 293.061 684.144 293.346 684.768 292.721C685.792 291.697 684.852 290.886 685.255 289.75C685.885 287.975 687.871 285.533 689.206 284.196L690.5 282.877C690.954 282.204 691.151 281.647 691.75 281C693.789 278.797 696.667 275.142 697.759 272.392C698.422 270.722 699.546 268.923 700.629 267.478L701.003 267.002C702.289 265.298 703.345 263.91 705.548 263.363L706 263.255L706.75 262.755C708.567 262.778 710.489 262.478 712.282 262.685L712.75 262.755C713.931 262.818 713.092 262.597 714.297 263.002L715 263.255L715.755 262.5L716.25 261.755L716.625 262.375L717.75 262.301L720.428 264.453C721.564 265.474 722.885 266.167 723.994 267.169C724.483 267.61 725.06 268.165 725.625 268.498L726.25 268.745C727.108 269.195 727.208 269.579 727.552 270.426L728.25 270.5L729.25 271.745L730 271.25L730.245 270C729.621 269.061 729.749 269.056 729.745 268C730.075 267.428 730.299 266.839 731 266.623C732.161 266.265 731.758 266.762 732.75 266.245C734.365 265.403 736.554 262.004 737.263 260.413L737.497 259.875C738.075 258.761 737.948 259.35 738.152 258.319L738.245 257.75C738.998 256.997 738.745 256.77 738.745 255.75L739.245 255.25L739 254.25L739.745 253.75L739.5 252.75L740.745 251.75L740.622 250L741.497 248.498L741.745 247.75L742.997 247.498L743.5 246.745L744.75 247.745C745.358 246.83 745.08 247.152 745.835 246.387L746.362 245.867C743.998 243.568 742.947 241.358 741.497 238.502C741.138 237.794 741.257 237.464 741.5 236.745C742.378 236.082 742.901 235.754 743.402 234.749C743.928 233.696 743.516 234.252 744.292 233.281L744.745 232.75L744.622 231.5L744.997 230.875L745 230.25C745.53 229.741 745.825 229.38 746.245 228.75L746 227.75L747.745 226.25L747.5 225.25L748.745 224.25C750.533 223.048 751.323 221.656 752.808 220.172L753.245 219.75L751.25 217.245C752.451 217.429 753.472 217.85 754.588 218.303C753.399 217.055 752.367 216.032 750.95 215.05L742.3 208.424C729.067 198.895 715.549 189.201 701.286 181.275C697.824 179.351 694.322 177.191 690.75 175.499C688.292 174.336 685.608 173.727 683.153 172.531C670.272 166.257 657.791 160.023 644.378 154.858C627.472 148.347 609.767 143.605 592.105 139.721L568.75 134.546C548.317 130.996 527.775 129.978 507.083 129.995C493.833 130.006 480.323 130.13 467.18 132.014C449.033 134.615 431.427 137.335 413.7 142.223C346.384 160.783 284.222 197.565 235.738 247.762C226.586 257.236 217.248 267.371 209.343 277.891C177.293 320.542 152.684 368.921 140.174 420.98C133.034 450.691 130.008 480.743 130.01 511.254C130.011 529.881 130.699 548.345 133.411 566.809C136.813 589.964 142.796 612.384 150.388 634.5C158.106 656.984 167.573 679.113 179.141 699.899C205.692 747.61 242.948 788.131 286.661 820.611C303.428 833.07 321.908 844.026 340.5 853.51C347.608 857.136 354.893 861.04 362.333 863.916C363.741 864.89 365.187 865.493 366.75 866.168L367.658 866.572L369.254 867.19L373.502 868.955L376.159 870.075L379.226 871.3C380.107 871.718 380.957 871.951 381.88 872.25L387.673 874.421L392.188 875.928L398.75 878.148L414.589 882.877L419 884.129L425.021 885.918L425.977 886.177C426.682 886.366 427.335 886.468 428.058 886.552C429.252 886.691 428.68 886.562 429.623 886.897C430.551 887.227 431.315 887.11 432.265 887.25L433.5 887.606C434.561 887.782 435.445 887.805 436.5 888.081L444.265 889.849C445.652 890.228 447.079 890.265 448.5 890.626L450.036 890.891C452.084 891.245 454.271 891.381 456.271 891.879C457.276 892.129 458.157 892.172 459.169 892.314L459.946 892.467L464.5 893.116L469.438 893.68C470.478 893.769 469.972 893.692 470.843 893.936C472.02 894.265 473.184 894.09 474.356 894.433C475.824 894.864 477.453 894.763 479 895.12L491.701 896.446C497.019 897.012 503.567 896.974 508.83 896.067C509.771 895.904 510.645 895.896 511.596 895.901L511.863 896.066L517.759 901.578Z"/>
	<path fill="#696868" transform="scale(2.68555 2.68555)" d="M746.362 245.867C743.998 243.568 742.947 241.358 741.497 238.502C741.138 237.794 741.257 237.464 741.5 236.745C742.378 236.082 742.901 235.754 743.402 234.749C743.928 233.696 743.516 234.252 744.292 233.281L744.745 232.75L744.622 231.5L744.997 230.875L745 230.25C745.53 229.741 745.825 229.38 746.245 228.75L746 227.75L747.745 226.25L747.5 225.25L748.745 224.25C750.533 223.048 751.323 221.656 752.808 220.172L753.245 219.75L751.25 217.245C752.451 217.429 753.472 217.85 754.588 218.303C757.809 220.435 762.002 223.667 764.25 226.755C765.497 228.468 767.51 230.139 769.25 231.291C774.754 234.934 780.078 241.558 784.763 246.271C786.144 247.66 789.054 249.927 789.627 251.75C789.572 253.582 789.026 254.125 787.976 255.479C785.575 258.573 783.313 261.554 784.25 265.755C784.406 266.454 784.838 266.904 785.207 267.5C786.402 269.43 787.528 271.437 788.461 273.502C789.528 275.864 790.338 277.685 790.68 280.283C790.774 280.999 790.69 280.54 790.978 281.265C791.294 282.061 791.069 282.842 790.962 283.666C790.084 284.148 789.318 284.257 788.334 284.404L788.25 284.851C789.731 286.704 791.005 288.359 792.054 290.5L792.301 290.971C793.341 292.993 793.867 295.308 794.485 297.488C791.327 295.447 787.142 290.078 785.311 286.75C784.115 284.577 781.65 282.108 779.861 280.358C779.211 279.721 777.938 278.773 777.503 277.997C776.617 276.42 774.725 275.416 774.003 273.998C773.043 272.114 770.894 271.182 770.003 269.498C769.024 267.647 766.884 266.664 766.003 264.998C765.153 263.391 763.153 262.288 762.538 260.714C762.1 259.591 760.314 257.621 759.255 257.029C758.557 256.639 758.162 256.187 757.604 255.609L756.491 254.502C755.283 253.795 754.592 252.645 753.497 252.002C752.059 251.158 751.31 249.816 749.997 249.002C748.516 248.084 747.599 247.14 746.362 245.867Z"/>
	<defs>
		<linearGradient id="gradient_1" gradientUnits="userSpaceOnUse" x1="708.39856" y1="260.1593" x2="872.40424" y2="464.13452">
			<stop offset="0" stop-color="#484C53"/>
			<stop offset="1" stop-color="#656771"/>
		</linearGradient>
	</defs>
	<path fill="url(#gradient_1)" transform="scale(2.68555 2.68555)" d="M746.362 245.867C747.599 247.14 748.516 248.084 749.997 249.002C751.31 249.816 752.059 251.158 753.497 252.002C754.592 252.645 755.283 253.795 756.491 254.502L757.604 255.609C758.162 256.187 758.557 256.639 759.255 257.029C760.314 257.621 762.1 259.591 762.538 260.714C763.153 262.288 765.153 263.391 766.003 264.998C766.884 266.664 769.024 267.647 770.003 269.498C770.894 271.182 773.043 272.114 774.003 273.998C774.725 275.416 776.617 276.42 777.503 277.997C777.938 278.773 779.211 279.721 779.861 280.358C781.65 282.108 784.115 284.577 785.311 286.75C787.142 290.078 791.327 295.447 794.485 297.488C795.414 298.13 795.622 298.562 796.226 299.5L801.225 306.5L801.741 307.25C802.335 308.137 802.721 309.107 803.339 309.97L820.937 339.52C821.843 341.082 822.32 342.908 823.187 344.539L831.796 362.25L834.585 368.5C834.914 369.39 835.354 370.156 835.777 371L836.566 372.969C836.891 373.887 837.356 374.634 837.784 375.5L838.309 376.75L839.794 380.25L843.074 388.74L846.551 397.998L847.72 401.194L849.798 407.706L851.51 413.553L851.946 414.846C852.261 415.751 852.383 416.564 852.564 417.498C853.762 423.679 856.306 429.758 857.227 436.014C857.37 436.987 857.626 437.808 857.87 438.75L859.079 444.498C859.396 446.449 859.642 448.47 860.142 450.377C860.346 451.154 860.366 451.52 860.369 452.281C860.373 453.373 860.589 453.535 860.82 454.5L861.562 459.998L862.746 468.449C863.066 470.453 862.88 472.652 862.843 474.679L840.382 451.879C836.404 447.827 832.488 443.257 828.085 439.71L827.783 441.5L827.229 441.772L826.99 439.75C826.57 437.967 825.364 436.199 824.126 434.88L802.178 413.041L756.114 366.424L719.666 329.708C715.981 326.106 712.074 321.24 707.634 318.647L678.944 293.81L679.698 293.767L680.5 294.25C681.465 293.755 682.025 293.492 683.125 293.625L684 293.755C684.35 293.061 684.144 293.346 684.768 292.721C685.792 291.697 684.852 290.886 685.255 289.75C685.885 287.975 687.871 285.533 689.206 284.196L690.5 282.877C690.954 282.204 691.151 281.647 691.75 281C693.789 278.797 696.667 275.142 697.759 272.392C698.422 270.722 699.546 268.923 700.629 267.478L701.003 267.002C702.289 265.298 703.345 263.91 705.548 263.363L706 263.255L706.75 262.755C708.567 262.778 710.489 262.478 712.282 262.685L712.75 262.755C713.931 262.818 713.092 262.597 714.297 263.002L715 263.255L715.755 262.5L716.25 261.755L716.625 262.375L717.75 262.301L720.428 264.453C721.564 265.474 722.885 266.167 723.994 267.169C724.483 267.61 725.06 268.165 725.625 268.498L726.25 268.745C727.108 269.195 727.208 269.579 727.552 270.426L728.25 270.5L729.25 271.745L730 271.25L730.245 270C729.621 269.061 729.749 269.056 729.745 268C730.075 267.428 730.299 266.839 731 266.623C732.161 266.265 731.758 266.762 732.75 266.245C734.365 265.403 736.554 262.004 737.263 260.413L737.497 259.875C738.075 258.761 737.948 259.35 738.152 258.319L738.245 257.75C738.998 256.997 738.745 256.77 738.745 255.75L739.245 255.25L739 254.25L739.745 253.75L739.5 252.75L740.745 251.75L740.622 250L741.497 248.498L741.745 247.75L742.997 247.498L743.5 246.745L744.75 247.745C745.358 246.83 745.08 247.152 745.835 246.387L746.362 245.867Z"/>
	<path fill="#151515" transform="scale(2.68555 2.68555)" d="M707.634 318.647C712.074 321.24 715.981 326.106 719.666 329.708L756.114 366.424L802.178 413.041L824.126 434.88C825.364 436.199 826.57 437.967 826.99 439.75L827.229 441.772L827.783 441.5L828.085 439.71C832.488 443.257 836.404 447.827 840.382 451.879L862.843 474.679C863.717 476.238 864.004 476.623 864.003 478.466L865.355 477.656L893.881 508.666L898.957 513.135L898.252 538.519C896.338 563.881 892.493 589.407 885.928 614C875.638 652.546 858.828 689.679 837.057 723.091C833.155 729.08 828.615 734.775 824.389 740.548C809.784 760.497 794.239 779.244 776.325 796.337C706.888 862.594 613.794 901.012 517.759 901.578L511.863 896.066L511.596 895.901L499.57 884.012C495.024 878.844 489.512 871.636 483.638 868.054C482.312 866.875 481.286 865.88 480.364 864.357C474.651 862.641 468.838 855.1 464.604 850.861L442.502 828.896L442.502 828.556C443.502 828.29 444.104 828.24 445.094 828.504L446 828.76L445.592 828.043C443.596 827.685 441.407 827.409 439.693 826.256C432.948 821.724 427.233 814.406 421.421 808.697L392.416 781.102L378.578 768.506C377.305 765.961 372.91 762.71 370.747 760.651L341.917 734.023L324.236 716.731C320.97 713.572 315.701 710.091 313.696 706.091L334.424 724.48C364.902 749.194 400.464 767.472 438.424 777.454L461.541 782.386C465.619 783.064 469.968 783.176 473.954 784.269C478.09 785.208 482.49 784.99 486.709 785.335C517.179 787.824 548.08 785.642 577.906 778.822C630.277 766.849 677.83 737.533 714.311 698.436C724.774 687.222 734.677 675.207 742.831 662.182C751.916 647.671 760.044 632.88 766.647 617.068C788.048 565.821 793.335 507.781 780.813 453.626C779.369 444.751 776.261 436.051 773.448 427.535C766.856 407.577 758.378 388.68 747.362 370.75C735.891 352.078 722.066 335.073 707.634 318.647Z"/>
	<defs>
		<linearGradient id="gradient_2" gradientUnits="userSpaceOnUse" x1="768.21289" y1="754.07159" x2="624.86798" y2="626.62769">
			<stop offset="0" stop-color="#0F1212"/>
			<stop offset="1" stop-color="#282F34"/>
		</linearGradient>
	</defs>
	<path fill="url(#gradient_2)" transform="scale(2.68555 2.68555)" d="M827.229 441.772L827.783 441.5L828.085 439.71C832.488 443.257 836.404 447.827 840.382 451.879L862.843 474.679C863.717 476.238 864.004 476.623 864.003 478.466C863.909 479.303 863.687 479.856 864.029 480.613C865.026 482.821 863.448 485.943 864.755 488L865.776 513.635C865.77 515.435 866.229 518.513 865.269 520L865.281 534.613C865.26 535.549 864.768 536.004 864.746 536.957C864.7 538.901 865.279 542.415 864.281 544C864.27 545.527 864.577 547.735 863.782 549C863.769 550.442 864.041 552.289 863.285 553.5C863.268 554.81 863.491 555.87 862.784 557C862.768 558.307 862.989 559.369 862.288 560.5L862.295 560.958C862.306 562.172 861.982 562.692 861.804 563.75C861.456 565.807 861.44 567.733 860.824 569.75C860.297 571.474 860.28 573.449 859.81 575.25L858.533 582.003L857.917 585.236C857.742 586.252 857.862 585.733 857.52 586.625C857.124 587.652 857.203 588.652 856.812 589.75L854.899 599.111L853.897 603.111L852.255 609.25C852.028 610.33 851.753 611.019 851.259 612L851.147 612.454C850.876 613.509 850.309 614.428 850.003 615.503L849.502 617.003L849.268 617.753C848.889 618.89 848.33 619.838 848.003 621.003L843.755 631.5L843.002 633.534C842.436 635.222 843.144 633.24 842.255 635L842.145 635.454C841.762 636.972 840.84 638.537 840.255 640C838.211 645.109 835.426 650.734 834.003 656.003C833.509 657.829 832.557 659.782 831.755 661.5L831.003 663.503L830.629 664.236C830.104 665.286 829.762 666.415 829.255 667.5L828.503 669.503L826.646 673.251C825.739 675.061 824.475 676.701 823.503 678.503L820.608 683.81L816.894 690.251C816.311 691.415 815.534 692.307 815.003 693.503L814.25 694.755L800.25 715.755L796.75 720.755L796.255 721.5L795.646 722.22C795.071 722.912 794.745 723.532 794.25 724.255L791.755 727.5L790.326 729.347C789.789 730.074 789.187 730.666 788.593 731.338C787.805 732.23 788.737 731.172 788.003 732.503C787.5 733.412 786.577 733.959 786.003 735.003C785.527 735.866 784.573 736.531 784.003 737.503C783.25 738.786 781.469 740.243 780.503 741.503L778.817 743.579C777.764 744.893 776.036 745.913 775.503 747.503C774.466 748.484 773.461 749.472 772.322 750.334C770.897 751.414 769.859 752.489 769.003 754.003C768.514 754.866 767.579 755.543 767.003 756.503L765.657 757.91L765.282 758.292C764.615 758.962 764.295 759.086 763.503 759.503C762.618 759.969 761.669 761.193 760.808 761.829C760.091 762.359 759.883 762.82 759.331 763.501C758.344 764.716 757.191 765.726 756.255 767C755.55 767.959 754.919 768.52 754 769.257C750.956 771.698 747.685 775.029 744.505 777.003C743.138 777.851 742.549 779.187 741.003 780.003C740.128 780.464 739.229 781.657 738.377 782.284C737.547 782.894 736.942 783.608 736.216 784.326C735.332 785.2 736.229 784.357 735.006 785.003L734.037 785.874C733.296 786.575 732.564 787.144 731.75 787.755L729.751 789.397C728.768 790.213 729.316 789.798 728.376 790.363C727.233 791.05 726.418 792.025 725.25 792.755L720.767 796.381C720.085 796.947 719.458 797.264 718.75 797.755C716.401 799.382 714.166 801.24 711.75 802.755C710.895 803.291 711.069 803.212 710.283 803.865C709.594 804.437 708.994 804.79 708.25 805.255L707.5 805.755L702.75 808.755L702 809.255L701.288 809.604C700.516 809.992 699.936 810.41 699.243 810.914L693 814.756L689.5 816.76L686.753 818.521L682.503 821.003L669.5 828.255L668.767 828.613C667.426 829.282 666.423 829.923 665.003 830.503L654.5 835.255L652.503 836.003L649.003 837.503L648.267 837.879C647.216 838.405 646.086 838.747 645 839.255L643.003 840.003L642.267 840.379C640.994 841.016 639.371 841.635 638.003 842.003C635.783 842.599 632.86 843.833 630.798 844.864C629.929 845.298 629.17 845.483 628.25 845.755L614.753 850.254C613.079 850.814 611.018 851.912 609.25 851.768L608.5 852.255C607.554 852.743 605.863 852.9 604.784 853.259C604.089 853.49 603.442 853.571 602.75 853.757L601.284 854.255C600.59 854.486 599.941 854.57 599.25 854.757L598.503 855.006L596.503 855.507L594.503 856.008L593.923 856.116L590.503 857.012L587.392 857.62C586.4 857.81 587.075 857.675 586.047 858.018C585.292 858.269 584.972 858.27 584.219 858.276C583.064 858.287 583.189 858.407 582.25 858.755C580.688 859.334 578.148 859.699 576.484 859.777C575.514 859.823 576.017 859.728 575.293 860.046C573.822 860.691 571.924 860.222 570.241 860.78C568.578 861.331 566.196 861.241 564.424 861.438L551.346 863.269C549.387 863.515 547.696 863.377 545.75 863.843L535.25 864.827C533.656 865.074 532.034 865.31 530.422 865.303C529.533 865.3 529.988 865.225 529.293 865.533C527.71 866.235 524.566 865.796 522.782 865.798L503.777 865.797C501.687 865.793 498.686 866.224 496.745 865.75C494.942 865.31 493.492 865.561 491.745 865.25C487.953 864.575 484.317 864.265 480.364 864.357C474.651 862.641 468.838 855.1 464.604 850.861L442.502 828.896L442.502 828.556C443.502 828.29 444.104 828.24 445.094 828.504L446 828.76L445.592 828.043L469.25 831.858C471.467 832.503 473.77 832.397 476 832.856C481.148 833.915 486.606 833.514 491.75 834.369C497.183 835.272 503.142 834.852 508.724 834.852C521.63 834.853 534.749 835.123 547.25 832.853C548.568 832.614 549.991 833.073 551.26 832.55C553.148 831.772 555.902 832.313 557.76 831.549C558.775 831.131 559.746 831.462 560.766 831.055C561.512 830.757 561.074 830.852 562.094 830.804C566.52 830.594 571.068 829.042 575.392 828.144L584.484 826.018L597.284 822.254L601.75 820.755C602.485 820.505 603.161 820.267 603.923 820.114C607.682 819.364 611.844 817.752 615.503 816.514L618.984 815.52L619.75 815.255L622.5 814.255L630.767 810.881L631.503 810.508L633.5 809.755C634.858 808.999 633.631 809.451 634.969 809.005L637 808.255L640.751 806.644L644.5 804.755C645.579 804.207 646.668 803.937 647.72 803.41L654.503 800.003L668 793.255L670.003 792.003L679.75 786.271L682 784.755C683.063 783.991 684.17 783.491 685.25 782.771L692.75 777.755C693.496 777.29 694.094 776.937 694.783 776.363C695.597 775.684 695.366 775.81 696.25 775.255C697.502 774.469 698.558 773.54 699.779 772.726L700.5 772.255L701.503 771.503C702.502 771.023 702.653 770.543 703.503 770.003C704.238 769.535 704.807 768.945 705.503 768.503C706.238 768.035 706.807 767.445 707.503 767.003C708.238 766.535 708.807 765.945 709.503 765.503C710.238 765.035 710.807 764.445 711.503 764.003C712.238 763.535 712.807 762.945 713.503 762.503C714.616 761.794 715.465 760.612 716.503 760.003C717.329 759.517 717.749 758.982 718.503 758.503C719.837 757.654 720.748 756.28 722.003 755.503C722.904 754.944 723.684 753.952 724.502 753.503C726.936 752.167 728.249 749.307 730.503 748.003C732.87 746.632 734.761 744.277 736.732 742.294L747.003 732.125C747.799 729.366 752.004 727.477 753.503 725.003C754.214 723.828 755.37 723.077 756.003 722.003C756.849 720.565 758.188 719.814 759.003 718.503C759.562 717.601 760.552 716.821 761.003 716.003C761.856 714.452 760.446 716.046 761.955 714.534C762.434 714.055 762.855 713.647 763.284 713.112L765.755 710L767.255 708L768.755 706L770.255 704L771.755 702L772.25 701.255L775.75 696.255L783.755 684.5C785.733 681.743 787.876 678.268 789.395 675.235L789.755 674.5L791.003 672.503L795.644 664.251L802.755 650C803.108 649.308 803.449 648.726 803.64 647.97C803.797 647.35 803.676 647.629 804.001 647.063L805.255 644.5L806.869 640.751L808.003 638.503L808.756 636.5C810.56 632.633 812.801 627.847 813.914 623.752C814.258 622.489 814.859 621.474 815.27 620.253L815.507 619.503L816.004 618.003C816.321 616.887 816.86 615.978 817.219 614.893L820.255 605.75L821.755 600.75C821.94 600.057 822.022 599.417 822.256 598.722C822.567 597.797 822.749 596.93 823.003 596.003L823.255 595.25L824.51 590.503L825.008 588.503C825.412 587.014 825.603 585.478 826.011 584.003C826.201 583.315 826.39 582.708 826.517 582.003L826.755 580.75C828.166 576.84 828.437 572.331 829.274 568.25L830.285 562.25C830.452 561.253 830.64 559.068 831.021 558.241C831.44 557.33 831.126 556.687 831.284 555.75L833.25 542.755C833.477 541.486 833.051 540.018 833.282 538.75C833.707 536.42 833.777 534.075 834.25 531.755C834.757 529.271 833.823 526.256 834.285 523.75C835.059 519.543 834.813 515.194 834.813 510.859C834.813 505.244 834.903 499.664 834.166 494.168C833.31 487.78 833.227 481.349 832.646 474.928C831.796 465.546 830.321 456.13 827.945 447C827.481 445.218 827.345 443.605 827.229 441.772Z"/>
	<defs>
		<linearGradient id="gradient_3" gradientUnits="userSpaceOnUse" x1="787.05353" y1="776.15228" x2="663.97003" y2="664.8399">
			<stop offset="0" stop-color="#0D0E0F"/>
			<stop offset="1" stop-color="#282D32"/>
		</linearGradient>
	</defs>
	<path fill="url(#gradient_3)" transform="scale(2.68555 2.68555)" d="M864.003 478.466L865.355 477.656L893.881 508.666L898.957 513.135L898.252 538.519C896.338 563.881 892.493 589.407 885.928 614C875.638 652.546 858.828 689.679 837.057 723.091C833.155 729.08 828.615 734.775 824.389 740.548C809.784 760.497 794.239 779.244 776.325 796.337C706.888 862.594 613.794 901.012 517.759 901.578L511.863 896.066L511.596 895.901L499.57 884.012C495.024 878.844 489.512 871.636 483.638 868.054C482.312 866.875 481.286 865.88 480.364 864.357C484.317 864.265 487.953 864.575 491.745 865.25C493.492 865.561 494.942 865.31 496.745 865.75C498.686 866.224 501.687 865.793 503.777 865.797L522.782 865.798C524.566 865.796 527.71 866.235 529.293 865.533C529.988 865.225 529.533 865.3 530.422 865.303C532.034 865.31 533.656 865.074 535.25 864.827L545.75 863.843C547.696 863.377 549.387 863.515 551.346 863.269L564.424 861.438C566.196 861.241 568.578 861.331 570.241 860.78C571.924 860.222 573.822 860.691 575.293 860.046C576.017 859.728 575.514 859.823 576.484 859.777C578.148 859.699 580.688 859.334 582.25 858.755C583.189 858.407 583.064 858.287 584.219 858.276C584.972 858.27 585.292 858.269 586.047 858.018C587.075 857.675 586.4 857.81 587.392 857.62L590.503 857.012L593.923 856.116L594.503 856.008L596.503 855.507L598.503 855.006L599.25 854.757C599.941 854.57 600.59 854.486 601.284 854.255L602.75 853.757C603.442 853.571 604.089 853.49 604.784 853.259C605.863 852.9 607.554 852.743 608.5 852.255L609.25 851.768C611.018 851.912 613.079 850.814 614.753 850.254L628.25 845.755C629.17 845.483 629.929 845.298 630.798 844.864C632.86 843.833 635.783 842.599 638.003 842.003C639.371 841.635 640.994 841.016 642.267 840.379L643.003 840.003L645 839.255C646.086 838.747 647.216 838.405 648.267 837.879L649.003 837.503L652.503 836.003L654.5 835.255L665.003 830.503C666.423 829.923 667.426 829.282 668.767 828.613L669.5 828.255L682.503 821.003L686.753 818.521L689.5 816.76L693 814.756L699.243 810.914C699.936 810.41 700.516 809.992 701.288 809.604L702 809.255L702.75 808.755L707.5 805.755L708.25 805.255C708.994 804.79 709.594 804.437 710.283 803.865C711.069 803.212 710.895 803.291 711.75 802.755C714.166 801.24 716.401 799.382 718.75 797.755C719.458 797.264 720.085 796.947 720.767 796.381L725.25 792.755C726.418 792.025 727.233 791.05 728.376 790.363C729.316 789.798 728.768 790.213 729.751 789.397L731.75 787.755C732.564 787.144 733.296 786.575 734.037 785.874L735.006 785.003C736.229 784.357 735.332 785.2 736.216 784.326C736.942 783.608 737.547 782.894 738.377 782.284C739.229 781.657 740.128 780.464 741.003 780.003C742.549 779.187 743.138 777.851 744.505 777.003C747.685 775.029 750.956 771.698 754 769.257C754.919 768.52 755.55 767.959 756.255 767C757.191 765.726 758.344 764.716 759.331 763.501C759.883 762.82 760.091 762.359 760.808 761.829C761.669 761.193 762.618 759.969 763.503 759.503C764.295 759.086 764.615 758.962 765.282 758.292L765.657 757.91L767.003 756.503C767.579 755.543 768.514 754.866 769.003 754.003C769.859 752.489 770.897 751.414 772.322 750.334C773.461 749.472 774.466 748.484 775.503 747.503C776.036 745.913 777.764 744.893 778.817 743.579L780.503 741.503C781.469 740.243 783.25 738.786 784.003 737.503C784.573 736.531 785.527 735.866 786.003 735.003C786.577 733.959 787.5 733.412 788.003 732.503C788.737 731.172 787.805 732.23 788.593 731.338C789.187 730.666 789.789 730.074 790.326 729.347L791.755 727.5L794.25 724.255C794.745 723.532 795.071 722.912 795.646 722.22L796.255 721.5L796.75 720.755L800.25 715.755L814.25 694.755L815.003 693.503C815.534 692.307 816.311 691.415 816.894 690.251L820.608 683.81L823.503 678.503C824.475 676.701 825.739 675.061 826.646 673.251L828.503 669.503L829.255 667.5C829.762 666.415 830.104 665.286 830.629 664.236L831.003 663.503L831.755 661.5C832.557 659.782 833.509 657.829 834.003 656.003C835.426 650.734 838.211 645.109 840.255 640C840.84 638.537 841.762 636.972 842.145 635.454L842.255 635C843.144 633.24 842.436 635.222 843.002 633.534L843.755 631.5L848.003 621.003C848.33 619.838 848.889 618.89 849.268 617.753L849.502 617.003L850.003 615.503C850.309 614.428 850.876 613.509 851.147 612.454L851.259 612C851.753 611.019 852.028 610.33 852.255 609.25L853.897 603.111L854.899 599.111L856.812 589.75C857.203 588.652 857.124 587.652 857.52 586.625C857.862 585.733 857.742 586.252 857.917 585.236L858.533 582.003L859.81 575.25C860.28 573.449 860.297 571.474 860.824 569.75C861.44 567.733 861.456 565.807 861.804 563.75C861.982 562.692 862.306 562.172 862.295 560.958L862.288 560.5C862.989 559.369 862.768 558.307 862.784 557C863.491 555.87 863.268 554.81 863.285 553.5C864.041 552.289 863.769 550.442 863.782 549C864.577 547.735 864.27 545.527 864.281 544C865.279 542.415 864.7 538.901 864.746 536.957C864.768 536.004 865.26 535.549 865.281 534.613L865.269 520C866.229 518.513 865.77 515.435 865.776 513.635L864.755 488C863.448 485.943 865.026 482.821 864.029 480.613C863.687 479.856 863.909 479.303 864.003 478.466Z"/>
	<path fill="#343434" transform="scale(2.68555 2.68555)" d="M893.881 508.666L898.957 513.135L898.252 538.519C896.338 563.881 892.493 589.407 885.928 614C875.638 652.546 858.828 689.679 837.057 723.091C833.155 729.08 828.615 734.775 824.389 740.548C809.784 760.497 794.239 779.244 776.325 796.337C706.888 862.594 613.794 901.012 517.759 901.578L511.863 896.066L512.687 896.06C522.886 895.972 533.468 894.665 543.662 893.797C557.109 892.653 570.392 891.839 583.688 889.377C596.33 887.037 608.668 883.592 620.956 879.844C674.1 863.631 722.617 836.364 764.391 799.726C772.282 792.804 779.696 785.185 787.043 777.696C840.537 723.162 876.373 648.04 888.583 572.869C891.127 557.206 892.25 541.583 893.002 525.75C893.274 520.014 893.94 514.417 893.881 508.666Z"/>
	<path fill="#343434" transform="scale(2.68555 2.68555)" d="M806.47 247.203C810.723 249.38 814.237 253.486 817.571 256.835L832.001 271.35L868.02 307.397L934.99 373.54L992.541 430.716L1000.81 438.07C1006.03 466.562 1007.27 494.878 1006.57 523.79C1004.3 617.671 975.488 710.912 922.011 788.416C900.077 820.204 874.837 849.805 846.347 875.917C776.995 939.477 690.595 982.002 598.156 998.939C569.479 1004.19 540.916 1005.93 511.807 1005.9C488.652 1005.88 465.354 1004.81 442.414 1001.5C440.062 997.612 435.505 994.088 432.25 990.893L407.463 966.649L377.585 936.368L322.182 881.842L260.713 822.335L249.632 811.373C247.324 809.093 244.567 806.937 243.145 803.965C246.055 804.98 248.342 807.736 250.623 809.754L259.945 817.572C273.294 828.494 286.643 838.434 301.1 847.872C322.949 862.136 346.839 873.723 370.905 883.682C387.256 890.449 404.556 895.441 421.706 899.721C478.598 913.92 537.678 914.749 595 902.349C619.724 897.001 643.882 888.601 667.191 878.854C685.195 871.325 702.217 861.81 718.75 851.504C753.594 829.785 785.906 802.541 812.75 771.445C842.024 737.534 864.506 697.632 881.228 656.242C900.444 608.677 909.683 554.503 907.909 503.287C907.233 483.773 904.73 464.357 901.386 445.14C899.082 431.902 896.542 418.491 892.836 405.567C888.814 391.538 883.542 377.767 878.044 364.256C871.95 349.278 865.359 334.698 857.422 320.589C850.233 307.809 842.612 295.168 834.06 283.247L824.01 269.623L812.496 255.25C810.478 252.815 807.801 250.598 806.617 247.614L806.47 247.203Z"/>
	<defs>
		<linearGradient id="gradient_4" gradientUnits="userSpaceOnUse" x1="189.96355" y1="306.11774" x2="564.30646" y2="545.95349">
			<stop offset="0" stop-color="#0F1213"/>
			<stop offset="1" stop-color="#4B4D55"/>
		</linearGradient>
	</defs>
	<path fill="url(#gradient_4)" transform="scale(2.68555 2.68555)" d="M362.333 863.916C354.893 861.04 347.608 857.136 340.5 853.51C321.908 844.026 303.428 833.07 286.661 820.611C242.948 788.131 205.692 747.61 179.141 699.899C167.573 679.113 158.106 656.984 150.388 634.5C142.796 612.384 136.813 589.964 133.411 566.809C130.699 548.345 130.011 529.881 130.01 511.254C130.008 480.743 133.034 450.691 140.174 420.98C152.684 368.921 177.293 320.542 209.343 277.891C217.248 267.371 226.586 257.236 235.738 247.762C284.222 197.565 346.384 160.783 413.7 142.223C431.427 137.335 449.033 134.615 467.18 132.014C480.323 130.13 493.833 130.006 507.083 129.995C527.775 129.978 548.317 130.996 568.75 134.546L592.105 139.721C609.767 143.605 627.472 148.347 644.378 154.858C657.791 160.023 670.272 166.257 683.153 172.531C685.608 173.727 688.292 174.336 690.75 175.499C694.322 177.191 697.824 179.351 701.286 181.275C715.549 189.201 729.067 198.895 742.3 208.424L750.95 215.05C752.367 216.032 753.399 217.055 754.588 218.303C753.472 217.85 752.451 217.429 751.25 217.245L753.245 219.75L752.808 220.172C751.323 221.656 750.533 223.048 748.745 224.25L747.5 225.25L747.745 226.25L746 227.75L746.245 228.75C745.825 229.38 745.53 229.741 745 230.25L744.997 230.875L744.622 231.5L744.745 232.75L744.292 233.281C743.516 234.252 743.928 233.696 743.402 234.749C742.901 235.754 742.378 236.082 741.5 236.745C741.257 237.464 741.138 237.794 741.497 238.502C742.947 241.358 743.998 243.568 746.362 245.867L745.835 246.387C745.08 247.152 745.358 246.83 744.75 247.745L743.5 246.745L742.997 247.498L741.745 247.75L741.497 248.498L740.622 250L740.745 251.75L739.5 252.75L739.745 253.75L739 254.25L739.245 255.25L738.745 255.75C738.745 256.77 738.998 256.997 738.245 257.75L738.152 258.319C737.948 259.35 738.075 258.761 737.497 259.875L737.263 260.413C736.554 262.004 734.365 265.403 732.75 266.245C731.758 266.762 732.161 266.265 731 266.623C730.299 266.839 730.075 267.428 729.745 268C729.749 269.056 729.621 269.061 730.245 270L730 271.25L729.25 271.745L728.25 270.5L727.552 270.426C727.208 269.579 727.108 269.195 726.25 268.745L725.625 268.498C725.06 268.165 724.483 267.61 723.994 267.169C722.885 266.167 721.564 265.474 720.428 264.453L717.75 262.301L716.625 262.375L716.25 261.755L715.755 262.5L715 263.255L714.297 263.002C713.092 262.597 713.931 262.818 712.75 262.755L712.282 262.685C710.489 262.478 708.567 262.778 706.75 262.755L706 263.255L705.548 263.363C703.345 263.91 702.289 265.298 701.003 267.002L700.629 267.478C699.546 268.923 698.422 270.722 697.759 272.392C696.667 275.142 693.789 278.797 691.75 281C691.151 281.647 690.954 282.204 690.5 282.877L689.206 284.196C687.871 285.533 685.885 287.975 685.255 289.75C684.852 290.886 685.792 291.697 684.768 292.721C684.144 293.346 684.35 293.061 684 293.755L683.125 293.625C682.025 293.492 681.465 293.755 680.5 294.25L679.698 293.767L678.944 293.81L662.048 282.441C652.445 276.293 642.321 270.641 632.07 265.657C579.759 240.224 514.432 231.985 457.613 244.57C441.502 248.138 425.65 252.469 410.261 258.498C355.389 279.994 308.483 318.666 276.88 368.4C238.857 428.237 225.722 502.272 241.221 571.485C250.215 611.651 267.267 649.821 292.754 682.285C299.321 690.651 306.686 698.124 313.696 706.091C315.701 710.091 320.97 713.572 324.236 716.731L341.917 734.023L370.747 760.651C372.91 762.71 377.305 765.961 378.578 768.506L392.416 781.102L421.421 808.697C427.233 814.406 432.948 821.724 439.693 826.256C441.407 827.409 443.596 827.685 445.592 828.043L446 828.76L445.094 828.504C444.104 828.24 443.502 828.29 442.502 828.556L442.502 828.896L464.604 850.861C468.838 855.1 474.651 862.641 480.364 864.357C481.286 865.88 482.312 866.875 483.638 868.054C489.512 871.636 495.024 878.844 499.57 884.012L511.596 895.901C510.645 895.896 509.771 895.904 508.83 896.067C503.567 896.974 497.019 897.012 491.701 896.446L479 895.12C477.453 894.763 475.824 894.864 474.356 894.433C473.184 894.09 472.02 894.265 470.843 893.936C469.972 893.692 470.478 893.769 469.438 893.68L464.5 893.116L459.946 892.467L459.169 892.314C458.157 892.172 457.276 892.129 456.271 891.879C454.271 891.381 452.084 891.245 450.036 890.891L448.5 890.626C447.079 890.265 445.652 890.228 444.265 889.849L436.5 888.081C435.445 887.805 434.561 887.782 433.5 887.606L432.265 887.25C431.315 887.11 430.551 887.227 429.623 886.897C428.68 886.562 429.252 886.691 428.058 886.552C427.335 886.468 426.682 886.366 425.977 886.177L425.021 885.918L419 884.129L414.589 882.877L398.75 878.148L392.188 875.928L387.673 874.421L381.88 872.25C380.957 871.951 380.107 871.718 379.226 871.3L376.159 870.075L373.502 868.955L369.254 867.19L367.658 866.572L366.75 866.168C365.187 865.493 363.741 864.89 362.333 863.916Z"/>
	<path fill="#696868" transform="scale(2.68555 2.68555)" d="M362.333 863.916C362.193 863.147 362.05 862.498 362.155 861.713L362.245 861.25L361.623 860.5L361.745 859.75L360.998 859.003L360.745 858C360.215 856.95 360.25 857.16 360.245 856C360.894 855.027 360.738 855.188 360.625 854.125L361.154 853.609C362.174 852.585 362.245 852.37 362.245 851L362.745 850.25L362.5 849.25L363.745 848.25L363.5 847.25L365.498 845.497C366.012 843.944 368.15 842.182 369.5 841.245L370.245 840.75L370.125 839.625L371.245 838.5L371.5 837.745L373 838.745L373.625 838.125C374.706 838.273 375.966 838.826 377 839.245C378.687 839.929 379.11 840.479 380.998 839.997L380.998 839.503L379.5 838.755C376.755 837.356 371.983 836.254 369.857 834.128L369.5 833.755L369 833.245C369.582 832.669 369.327 832.796 370.03 832.532L370.498 832.375C370.498 831.785 370.542 832.091 370.249 831.353L370 830.75C371.028 829.902 371.385 829.365 371.497 827.997L371.5 827.25C372.03 826.741 372.325 826.38 372.745 825.75L372.5 824.75L373.745 823.75L373.5 822.75C374.376 822.162 374.118 822.436 374.729 821.672L375.245 821L376.245 819.75L376.623 819L376.998 818.375L377 817.75C378.13 817.424 379.829 815.87 380.498 814.875L380.745 814.25C382.136 813.121 382.434 812.751 384.25 812.745L384.623 812C385.1 811.125 384.893 810.885 385.121 809.967L385.245 809.5C384.772 808.947 384.465 808.714 383.796 808.382L379.5 806.294L378.75 807L378.498 806.003L377 805.255C375.919 804.704 374.833 804.438 373.78 803.91L366.998 800.503L365.5 799.755C364.698 799.254 363.725 798.932 363.03 798.41L362.498 798.003C360.98 797.081 359.117 795.669 357.498 795.003C356.506 794.594 356.146 794.527 355.25 793.755L355.245 792.25L355.498 791.375L355.5 790.75C356.449 790.113 356.864 789.572 357.147 788.452L357.25 788C357.451 787.597 357.824 787.29 357.998 786.875L358.25 786C358.436 785.59 358.766 785.261 358.997 784.875L359 784.25L359.75 784.245L360.498 782.997L360.5 782.25L361.498 781.497L361.5 780.75L362.25 780.745L362.998 779.497L363 778.75L363.998 777.997L364.25 777C364.835 775.846 364.437 777.215 364.998 775.875L365.25 775C365.636 774.152 365.67 774.857 365.998 773.875L366.123 773C366.553 771.709 367.346 770.824 367.637 769.358L367.998 767.497C368.135 766.812 368.276 766.415 368.598 765.772L369.358 764.217L369.625 763.625L370.5 764.245L371.125 763.625C372.015 764.508 372.063 764.245 373.25 764.245L377.246 768.172L377.75 768.745L378.578 768.506L392.416 781.102L421.421 808.697C427.233 814.406 432.948 821.724 439.693 826.256C441.407 827.409 443.596 827.685 445.592 828.043L446 828.76L445.094 828.504C444.104 828.24 443.502 828.29 442.502 828.556L442.502 828.896L464.604 850.861C468.838 855.1 474.651 862.641 480.364 864.357C481.286 865.88 482.312 866.875 483.638 868.054C489.512 871.636 495.024 878.844 499.57 884.012L511.596 895.901C510.645 895.896 509.771 895.904 508.83 896.067C503.567 896.974 497.019 897.012 491.701 896.446L479 895.12C477.453 894.763 475.824 894.864 474.356 894.433C473.184 894.09 472.02 894.265 470.843 893.936C469.972 893.692 470.478 893.769 469.438 893.68L464.5 893.116L459.946 892.467L459.169 892.314C458.157 892.172 457.276 892.129 456.271 891.879C454.271 891.381 452.084 891.245 450.036 890.891L448.5 890.626C447.079 890.265 445.652 890.228 444.265 889.849L436.5 888.081C435.445 887.805 434.561 887.782 433.5 887.606L432.265 887.25C431.315 887.11 430.551 887.227 429.623 886.897C428.68 886.562 429.252 886.691 428.058 886.552C427.335 886.468 426.682 886.366 425.977 886.177L425.021 885.918L419 884.129L414.589 882.877L398.75 878.148L392.188 875.928L387.673 874.421L381.88 872.25C380.957 871.951 380.107 871.718 379.226 871.3L376.159 870.075L373.502 868.955L369.254 867.19L367.658 866.572L366.75 866.168C365.187 865.493 363.741 864.89 362.333 863.916Z"/>
	<path fill="#A6A8A7" transform="scale(2.68555 2.68555)" d="M313.696 706.091C306.686 698.124 299.321 690.651 292.754 682.285C267.267 649.821 250.215 611.651 241.221 571.485C225.722 502.272 238.857 428.237 276.88 368.4C308.483 318.666 355.389 279.994 410.261 258.498C425.65 252.469 441.502 248.138 457.613 244.57C514.432 231.985 579.759 240.224 632.07 265.657C642.321 270.641 652.445 276.293 662.048 282.441L678.944 293.81L707.634 318.647C722.066 335.073 735.891 352.078 747.362 370.75C758.378 388.68 766.856 407.577 773.448 427.535C776.261 436.051 779.369 444.751 780.813 453.626C793.335 507.781 788.048 565.821 766.647 617.068C760.044 632.88 751.916 647.671 742.831 662.182C734.677 675.207 724.774 687.222 714.311 698.436C677.83 737.533 630.277 766.849 577.906 778.822C548.08 785.642 517.179 787.824 486.709 785.335C482.49 784.99 478.09 785.208 473.954 784.269C469.968 783.176 465.619 783.064 461.541 782.386L438.424 777.454C400.464 767.472 364.902 749.194 334.424 724.48L313.696 706.091Z"/>
	<path fill="#C8C7C7" transform="scale(2.68555 2.68555)" d="M299.455 591.719C299.228 588.373 298.177 570.102 299.57 567.905C301.86 568.833 304.771 568.463 307.214 568.471C312.351 568.49 317.636 568.291 322.742 568.931C319.464 569.005 317.171 568.383 314.804 570.859C311.562 574.249 308.582 577.591 305.961 581.5C303.72 584.844 301.83 588.474 299.455 591.719Z"/>
	<defs>
		<linearGradient id="gradient_5" gradientUnits="userSpaceOnUse" x1="460.61401" y1="483.439" x2="493.20581" y2="482.11038">
			<stop offset="0" stop-color="#094543"/>
			<stop offset="1" stop-color="#0C6C5D"/>
		</linearGradient>
	</defs>
	<path fill="url(#gradient_5)" transform="scale(2.68555 2.68555)" d="M463.65 409.375L463.885 408.965C464.958 406.412 464.209 400.534 464.211 397.611L492.812 428.593L486.222 438.465L485.836 439.045C472.821 458.885 469.127 483.265 467.945 506.5C467.146 522.209 467.404 537.983 468.347 553.677L469.621 567.994L463.413 568.027L463.104 468.455L463.65 409.375Z"/>
	<path fill="#024841" transform="scale(2.68555 2.68555)" d="M299.092 608.467L417.004 608.493L416.981 666.494L462.815 665.995C463.361 664.464 463.116 662.404 463.113 660.765L463.103 650.862L463.065 608.491L475.249 608.446C476.914 608.326 478.222 608.28 479.365 606.914C480.222 605.89 479.984 602.286 479.989 600.976L479.764 583.805C479.689 581.725 478.935 576.519 479.75 574.779C479.911 574.434 480.25 574.205 480.5 573.918L481.549 574.75C483.366 577.964 482.472 584.083 482.478 587.807L482.497 610.165C481.194 611.761 479.419 612.944 477.791 614.191L479.961 618.493C495.097 643.847 521.891 661.779 550.034 669.332C578.765 677.042 610.345 670.959 635.714 656.096C665.244 638.794 682.707 612.19 691.205 579.476C693.748 584.419 688.977 598.499 687.233 603.75C677.522 633.003 655.373 658.672 627.491 671.983C599.763 685.219 569.785 686.343 541.019 675.927C521.39 668.82 504.413 656.777 490.149 641.677C487.169 638.523 484.049 635.473 481.429 632.006L476.373 624.931C474.769 622.48 472.807 617.659 469.698 617.067C467.905 616.725 466.57 617.31 465.134 618.25C464.3 630.098 464.628 642.119 464.677 653.994C464.698 658.878 465.356 664.524 464.522 669.313C464.113 671.664 463.018 673.22 461.5 675.009L436.75 675.737C430.67 675.974 423.772 676.642 417.75 675.895C416.712 675.767 415.839 675.281 415.122 674.509C414.389 673.72 414.273 672.99 413.992 672L413.725 671.148C412.051 665.316 413.013 657.388 413.024 651.332L413.047 617.027L307.74 617.011L299.092 608.467Z"/>
	<path fill="#FEFEFE" transform="scale(2.68555 2.68555)" d="M299.57 567.905C303.565 562.23 309.389 557.113 314.204 552.065L346.364 518.46L431.753 428.983L449.396 410.772C453.905 406.072 458.295 400.736 463.651 397.017L463.65 409.375L463.104 468.455C456.869 474.433 421.707 512.807 417.034 513.948L417.355 546.572C417.455 552.899 418.512 561.142 417.055 567.25C415.843 568.358 414.735 568.024 413.128 568.065L361.497 568.355C358.541 568.428 354.172 569.054 351.47 567.897C348.892 569.531 344.448 569.01 341.458 569.008L322.742 568.931C317.636 568.291 312.351 568.49 307.214 568.471C304.771 568.463 301.86 568.833 299.57 567.905Z"/>
	<path fill="#1B776C" transform="scale(2.68555 2.68555)" d="M351.47 567.897L416.945 493.553L417.034 513.948L417.355 546.572C417.455 552.899 418.512 561.142 417.055 567.25C415.843 568.358 414.735 568.024 413.128 568.065L361.497 568.355C358.541 568.428 354.172 569.054 351.47 567.897Z"/>
	<path fill="#024841" transform="scale(2.68555 2.68555)" d="M351.47 567.897L416.945 493.553L417.034 513.948L417.355 546.572C417.455 552.899 418.512 561.142 417.055 567.25C415.843 568.358 414.735 568.024 413.128 568.065L412.897 505.146L361.497 568.355C358.541 568.428 354.172 569.054 351.47 567.897Z"/>
	<path fill="#1B776C" transform="scale(2.68555 2.68555)" d="M524.597 479.932C528.048 469.487 532.2 460.5 540.024 452.611C551.524 441.014 566.269 435.083 582.551 435.019C601.598 434.945 616.1 443.006 629.366 456.134C630.705 459.776 630.468 463.547 630.394 467.363C630.125 477.449 629.445 487.958 631.123 497.952L638.036 507.209L637.616 516.124C638.479 521.942 637.667 528.974 637.638 534.905C637.567 549.325 639.292 564.965 636.105 579.079C632.531 594.904 622.772 608.048 609.087 616.574C597.958 623.508 582.31 625.744 569.642 622.757L568.75 622.538C554.667 619.191 543.213 611.025 535.051 599.177C530.544 592.635 526.924 585.072 525.366 577.257C523.461 567.698 523.989 557.638 523.999 547.941L523.989 510.75C523.95 505.082 522.849 498.684 523.861 493.104L524.597 479.932Z"/>
	<path fill="#024841" transform="scale(2.68555 2.68555)" d="M631.123 497.952L638.036 507.209L637.616 516.124C635.926 514.865 634.723 513.216 633.368 511.627C629.705 507.329 630.778 503.264 631.123 497.952Z"/>
	<path fill="#024841" transform="scale(2.68555 2.68555)" d="M627.319 517.866C628.263 528.982 624.672 541.485 617.5 550.096C610.356 558.673 600.542 563.763 589.5 565.012C579.229 566.173 567.878 563.637 559.337 557.666L558.831 557.319C550.694 551.537 544.581 540.713 543.138 530.953L542.761 528.269C542.436 526.036 542.889 523.521 543.575 521.382C544.867 527.422 547.277 533.543 550.953 538.537C557.641 547.624 567.687 554.116 578.901 555.744C589.525 557.286 600.234 555.301 608.942 548.779C619.348 540.986 625.469 530.661 627.319 517.866Z"/>
	<path fill="#024841" transform="scale(2.68555 2.68555)" d="M524.597 479.932C528.048 469.487 532.2 460.5 540.024 452.611C551.524 441.014 566.269 435.083 582.551 435.019C601.598 434.945 616.1 443.006 629.366 456.134C630.705 459.776 630.468 463.547 630.394 467.363C627.133 464.537 624.218 461.223 620.852 458.555C608.284 448.594 592.895 443.361 576.812 444.556C562.273 445.637 546.656 453.73 537.261 464.794C531.727 471.313 527.506 479.193 525.477 487.5C524.429 491.792 524.501 495.638 524.184 500L523.861 493.104L524.597 479.932Z"/>
	<path fill="#E1A857" transform="scale(2.68555 2.68555)" d="M543.575 521.382C542.89 515.264 542.867 509.239 544.467 503.25C546.404 496.003 549.942 489.511 555.441 484.333C563.554 476.693 575.694 472.552 586.801 473.078C598.31 473.622 609.501 478.826 617.147 487.469C624.151 495.387 627.966 507.437 627.319 517.866C625.469 530.661 619.348 540.986 608.942 548.779C600.234 555.301 589.525 557.286 578.901 555.744C567.687 554.116 557.641 547.624 550.953 538.537C547.277 533.543 544.867 527.422 543.575 521.382Z"/>
	<path fill="#9A4F2D" transform="scale(2.68555 2.68555)" d="M568.684 508.631C568.763 504.786 570.572 501.512 573.319 498.907C576.955 495.461 581.586 494.211 586.5 494.397C590.566 494.551 595.359 497.421 598.035 500.344C600.054 502.549 600.968 505.129 601.525 508L601.752 509L601.972 510L602.109 510.504C602.84 513.344 602.88 517.22 601.524 519.84L600.824 520.38C601.589 517.288 602.107 513.182 601.228 510.068C599.823 505.095 596.057 501.156 591.531 498.869C588.06 497.114 582.898 496.8 579.215 498.153C573.985 500.074 571.078 503.851 568.684 508.631Z"/>
	<path fill="#9A4F2D" transform="scale(2.68555 2.68555)" d="M567.808 517.143C569.129 522.018 571.498 526.357 576 529.012C578.829 530.68 582.992 531.876 586.28 531.25L587.21 531.077C591.7 530.215 596.269 527.772 598.88 523.932L600.314 521.51C600.438 523.199 599.702 524.522 598.982 526C596.996 530.074 593.453 533.027 589.147 534.426C585.041 535.76 579.794 535.147 576.012 533.088C571.591 530.681 570.014 527.05 568.594 522.5C567.977 520.523 567.5 519.225 567.808 517.143Z"/>
	<path fill="#FEFEFE" transform="scale(2.68555 2.68555)" d="M568.684 508.631C571.078 503.851 573.985 500.074 579.215 498.153C582.898 496.8 588.06 497.114 591.531 498.869C596.057 501.156 599.823 505.095 601.228 510.068C602.107 513.182 601.589 517.288 600.824 520.38L600.314 521.51L598.88 523.932C596.269 527.772 591.7 530.215 587.21 531.077L586.28 531.25C582.992 531.876 578.829 530.68 576 529.012C571.498 526.357 569.129 522.018 567.808 517.143C567.872 514.193 567.964 511.511 568.684 508.631Z"/>
	<defs>
		<linearGradient id="gradient_6" gradientUnits="userSpaceOnUse" x1="473.47223" y1="401.5004" x2="655.67163" y2="745.9458">
			<stop offset="0" stop-color="#185C57"/>
			<stop offset="1" stop-color="#11745E"/>
		</linearGradient>
	</defs>
	<path fill="url(#gradient_6)" transform="scale(2.68555 2.68555)" d="M630 397.852L630.194 333.641L630.273 318.417C630.285 316.771 630.031 313.485 630.597 312C630.797 311.473 631.238 311.072 631.559 310.608L632.75 310.496C634.475 311.143 635.269 311.614 636.427 313.06L695.899 371.342L714.066 388.819C716.522 391.234 719.599 393.735 721.632 396.5L721.301 397.75C723.321 400.218 725.731 402.246 727.952 404.525L741.39 418.132L763.889 440.962C765.973 442.912 768.161 444.458 770.347 446.25C772.716 448.193 777.34 453.962 780.33 454.315L780.813 453.626C793.335 507.781 788.048 565.821 766.647 617.068C760.044 632.88 751.916 647.671 742.831 662.182C734.677 675.207 724.774 687.222 714.311 698.436C677.83 737.533 630.277 766.849 577.906 778.822C548.08 785.642 517.179 787.824 486.709 785.335C482.49 784.99 478.09 785.208 473.954 784.269C473.416 783.124 473.048 782.304 472.08 781.47C471.526 780.993 471.17 780.666 470.697 780.082C465.998 774.281 459.723 769 454.419 763.701L420.026 729.272L307.74 617.011L413.047 617.027L413.024 651.332C413.013 657.388 412.051 665.316 413.725 671.148L413.992 672C414.273 672.99 414.389 673.72 415.122 674.509C415.839 675.281 416.712 675.767 417.75 675.895C423.772 676.642 430.67 675.974 436.75 675.737L461.5 675.009C463.018 673.22 464.113 671.664 464.522 669.313C465.356 664.524 464.698 658.878 464.677 653.994C464.628 642.119 464.3 630.098 465.134 618.25C466.57 617.31 467.905 616.725 469.698 617.067C472.807 617.659 474.769 622.48 476.373 624.931L481.429 632.006C484.049 635.473 487.169 638.523 490.149 641.677C504.413 656.777 521.39 668.82 541.019 675.927C569.785 686.343 599.763 685.219 627.491 671.983C655.373 658.672 677.522 633.003 687.233 603.75C688.977 598.499 693.748 584.419 691.205 579.476C692.877 571.436 692.402 562.881 692.507 554.683L692.944 519.949C691.144 519.512 667.851 495.39 664.454 492.148C663.576 498.019 662.184 503.164 657.075 506.788C653.484 509.335 648.648 510.248 644.312 509.442C642.214 509.051 639.955 508.145 638.036 507.209L631.123 497.952C629.445 487.958 630.125 477.449 630.394 467.363C630.468 463.547 630.705 459.776 629.366 456.134C630.228 450.574 629.673 444.007 629.726 438.34L630 397.852Z"/>
	<path fill="#E1A857" transform="scale(2.68555 2.68555)" d="M637.084 372.553L672.042 405.906L683.479 416.646C687.084 419.994 690.699 423.088 693.417 427.25L693.343 428.854L692.5 429.164L636.78 375.586L637.084 372.553Z"/>
	<path fill="#E1A857" transform="scale(2.68555 2.68555)" d="M637.084 348.507C649.361 358.788 660.628 370.726 672.257 381.777L689.569 398.187C693.579 401.948 697.853 405.635 701.509 409.75C702.73 411.124 703.535 412.69 704.306 414.342C699.114 412.293 694.501 406.818 690.578 402.921L677.856 390.524L637.073 351.602L637.084 348.507Z"/>
	<path fill="#E1A857" transform="scale(2.68555 2.68555)" d="M636.671 327.499L712.607 400.25C712.423 401.49 712.356 401.572 711.5 402.495C710.132 402.239 709.122 401.131 708.12 400.223L685.641 378.319L636.717 331.828L636.671 327.499Z"/>
	<path fill="#E1A857" transform="scale(2.68555 2.68555)" d="M637.073 394.083C641.782 397.854 646.552 401.654 650.946 405.792C653.431 408.133 655.55 410.876 657.995 413.282L682.018 436.642C685.217 439.731 691.233 444.179 692.972 448L692.75 449.968L692 450.119L664.807 423.668L662.373 421.187C660.698 422.134 659.275 423.157 657.808 424.403L637.082 405.041C636.338 402.753 636.414 399.223 637.102 396.936C636.95 396.001 637.047 395.029 637.073 394.083Z"/>
	<path fill="#024841" transform="scale(2.68555 2.68555)" d="M637.082 405.041C636.338 402.753 636.414 399.223 637.102 396.936L662.373 421.187C660.698 422.134 659.275 423.157 657.808 424.403L637.082 405.041Z"/>
	<path fill="#FEFEFE" transform="scale(2.68555 2.68555)" d="M664.739 432.059L692.999 459.274L692.944 519.949C691.144 519.512 667.851 495.39 664.454 492.148L664.739 432.059Z"/>
	<path fill="#9A4F2D" transform="scale(2.68555 2.68555)" d="M630 397.852L630.194 333.641L630.273 318.417C630.285 316.771 630.031 313.485 630.597 312C630.797 311.473 631.238 311.072 631.559 310.608L632.75 310.496C634.475 311.143 635.269 311.614 636.427 313.06C636.46 317.441 635.749 323.31 636.671 327.499L636.717 331.828C636.378 336.209 636.078 340.677 636.387 345.067C636.472 346.273 636.374 347.51 637.084 348.507L637.073 351.602C635.577 355.508 636.465 362.63 636.479 366.934C636.484 368.496 636.191 370.848 636.845 372.238L637.084 372.553L636.78 375.586C636.401 379.932 636.504 384.302 636.505 388.661C636.505 390.401 636.096 392.637 637.073 394.083C637.047 395.029 636.95 396.001 637.102 396.936C636.414 399.223 636.338 402.753 637.082 405.041L657.808 424.403C659.275 423.157 660.698 422.134 662.373 421.187L664.807 423.668L664.739 432.059L664.454 492.148C663.576 498.019 662.184 503.164 657.075 506.788C653.484 509.335 648.648 510.248 644.312 509.442C642.214 509.051 639.955 508.145 638.036 507.209L631.123 497.952C629.445 487.958 630.125 477.449 630.394 467.363C630.468 463.547 630.705 459.776 629.366 456.134C630.228 450.574 629.673 444.007 629.726 438.34L630 397.852Z"/>
	<path fill="#A6A8A7" transform="scale(2.68555 2.68555)" d="M636.994 461.915C644.759 467.715 650.705 474.359 657.648 480.997C657.652 481.909 657.642 482.174 657.25 483.035L654.75 481.762C647.712 478.411 643.978 479.751 636.999 482.202L636.994 461.915Z"/>
	<path fill="#FEFEFE" transform="scale(2.68555 2.68555)" d="M637.082 405.041L657.808 424.403L657.648 480.997C650.705 474.359 644.759 467.715 636.994 461.915L637.082 405.041Z"/>
	<path fill="#1B776C" transform="scale(2.68555 2.68555)" d="M313.696 706.091C306.686 698.124 299.321 690.651 292.754 682.285C267.267 649.821 250.215 611.651 241.221 571.485C225.722 502.272 238.857 428.237 276.88 368.4C308.483 318.666 355.389 279.994 410.261 258.498C425.65 252.469 441.502 248.138 457.613 244.57C514.432 231.985 579.759 240.224 632.07 265.657C642.321 270.641 652.445 276.293 662.048 282.441L678.944 293.81L707.634 318.647C722.066 335.073 735.891 352.078 747.362 370.75C758.378 388.68 766.856 407.577 773.448 427.535C776.261 436.051 779.369 444.751 780.813 453.626L780.33 454.315C777.34 453.962 772.716 448.193 770.347 446.25C768.161 444.458 765.973 442.912 763.889 440.962L741.39 418.132L727.952 404.525C725.731 402.246 723.321 400.218 721.301 397.75L721.632 396.5C719.599 393.735 716.522 391.234 714.066 388.819L695.899 371.342L636.427 313.06C635.269 311.614 634.475 311.143 632.75 310.496L631.559 310.608C631.238 311.072 630.797 311.473 630.597 312C630.031 313.485 630.285 316.771 630.273 318.417L630.194 333.641L630 397.852L629.726 438.34C629.673 444.007 630.228 450.574 629.366 456.134C616.1 443.006 601.598 434.945 582.551 435.019C566.269 435.083 551.524 441.014 540.024 452.611C532.2 460.5 528.048 469.487 524.597 479.932L486.222 438.465L492.812 428.593L464.211 397.611C464.209 400.534 464.958 406.412 463.885 408.965L463.65 409.375L463.651 397.017C458.295 400.736 453.905 406.072 449.396 410.772L431.753 428.983L346.364 518.46L314.204 552.065C309.389 557.113 303.565 562.23 299.57 567.905C298.177 570.102 299.228 588.373 299.455 591.719L299.092 608.467L307.74 617.011L420.026 729.272L454.419 763.701C459.723 769 465.998 774.281 470.697 780.082C471.17 780.666 471.526 780.993 472.08 781.47C473.048 782.304 473.416 783.124 473.954 784.269C469.968 783.176 465.619 783.064 461.541 782.386L438.424 777.454C400.464 767.472 364.902 749.194 334.424 724.48L313.696 706.091Z"/>
	<path fill="#FEFEFE" transform="scale(2.68555 2.68555)" d="M492.812 428.593C504.695 412.418 522.774 401.111 541.191 393.817C569.32 382.678 602.706 385.974 630 397.852L629.726 438.34C629.673 444.007 630.228 450.574 629.366 456.134C616.1 443.006 601.598 434.945 582.551 435.019C566.269 435.083 551.524 441.014 540.024 452.611C532.2 460.5 528.048 469.487 524.597 479.932L486.222 438.465L492.812 428.593Z"/>
</svg>
