<?xml version="1.0" encoding="utf-8" ?>
<svg xmlns="http://www.w3.org/2000/svg" xmlns:xlink="http://www.w3.org/1999/xlink" width="2760" height="2760">
	<path fill="white" transform="scale(2.69531 2.69531)" d="M352.473 193.891L351.413 236.876L340.114 251.164C337.713 254.232 335.277 258.007 332.347 260.561C329.697 262.871 326.233 264.753 323.254 266.636L352.473 193.891Z"/>
	<path fill="white" transform="scale(2.69531 2.69531)" d="M753.505 568.094L850.789 628.182L746.649 625.456L717.748 663.591C716.195 662.28 715.07 659.978 713.94 658.261L706.296 646.625L693.352 627.088C690.889 623.432 687.799 619.647 685.988 615.637L753.505 568.094Z"/>
	<path fill="white" transform="scale(2.69531 2.69531)" d="M165.049 394.546L306.898 497.988L278.982 573.68L267.856 601.939C263.766 595.484 260.663 588.103 257.243 581.259L235.909 538.105L165.049 394.546Z"/>
	<path fill="white" transform="scale(2.69531 2.69531)" d="M437.903 133.462L383.65 263.129L475.889 233.101L377.331 348.606C370.886 349.643 363.173 348.849 356.601 348.843L311.75 348.798L270.569 348.963L270.975 384.762L225.693 331.4L303.076 282.342L321.292 271.032C326.194 268.066 331.576 265.076 335.858 261.262C340.195 257.398 343.572 251.754 347.151 247.141L362.073 228.416L437.903 133.462ZM352.16 278.941L283.991 316.25L283.819 316.831L284.613 316.953L331.323 310.989L346.712 288.888C348.814 285.736 351.211 282.501 352.852 279.084L352.16 278.941Z"/>
	<path fill="white" transform="scale(2.69531 2.69531)" d="M645.42 558.397C646.331 558.603 646.347 558.746 646.927 559.5C652.529 566.781 657.252 575.386 662.261 583.135L689.347 624.959L739.865 703.294L858.107 886.604L751.786 832.612L483.22 695.14C488.396 689.323 495.577 684.466 501.57 679.419L541.112 646.122L613.789 584.965L645.42 558.397Z"/>
	<path fill="white" transform="scale(2.69531 2.69531)" d="M790.498 136.294L661.191 474.081L337.649 598.352C337.876 596.66 351.813 583.237 353.898 581.096L425.97 507.75L608.724 321.367L790.498 136.294Z"/>
	<path fill="white" transform="scale(2.69531 2.69531)" d="M451.402 266.517L454.25 457.819C454.269 459.636 454.71 463.095 454.209 464.683C453.292 467.593 426.689 493.299 422.649 497.427L304.543 617.784L761.995 453.35C760.276 455.217 757.963 456.796 756.025 458.467L744.164 468.688L708.634 499.517L598.992 594.624L479.621 695.476L479.507 889.061L270.678 625.084L371.205 352.678C373.616 351.889 376.772 352.1 379.315 351.98L451.402 266.517Z"/>
</svg>
